<?xml version="1.0" encoding="UTF-8"?>
<!-- Created with Inkscape (http://www.inkscape.org/) -->
<svg width="1e3" height="1e3" version="1.1" viewBox="0 0 264.58 264.58" xmlns="http://www.w3.org/2000/svg">
 <g transform="matrix(.9151 0 0 .9151 9.4624 51.461)">
  <g stroke-width="5.853" aria-label="G">
   <path d="m143.24 3.0145h-8.8965l-9.1306 14.047c-15.218-11.94-25.519-15.92-42.61-15.92-18.495 0-33.011 5.1506-47.76 17.091-23.178 18.73-33.947 42.376-33.947 73.982 0 23.88 6.7895 43.78 20.602 58.998 14.515 16.388 36.054 25.987 58.53 25.987 19.666 0 33.479-6.0871 48.697-21.305l8.6624 21.071h9.833v-51.506c0-11.94 0-12.408 1.4047-14.515 2.1071-2.5753 6.3212-3.2777 19.666-3.2777h3.5118v-11.004h-74.45v11.004h4.4483c19.666 0 21.305 1.1706 21.305 14.281 0 10.067-1.6388 19.198-4.6824 24.817-5.853 11.472-20.837 19.432-36.054 19.432s-30.201-7.7259-38.161-19.432c-8.6624-13.111-12.408-29.499-12.408-54.55 0-52.209 17.325-80.069 49.867-80.069 26.69 0 45.185 19.198 54.784 56.657h10.067z"/>
  </g>
  <g transform="translate(5.9367 -1.6284)" stroke-width="4.1781" aria-label="k">
   <path d="m196.78 83.657v-82.726l-30.918 1.8384v7.1863h8.0219c6.3507 0.16712 7.1863 1.1699 7.1863 8.3561v93.255c-0.16712 2.3397-0.33424 3.3425-1.0027 4.1781-1.1699 1.5041-4.3452 2.1726-11.531 2.3397h-0.66849v6.0164h42.282v-6.0164h-0.66849c-11.197-0.33424-12.701-1.1699-12.701-7.1863v-16.879l10.194-9.6931 19.888 27.91c0.83561 1.337 1.1699 2.1726 1.1699 2.8411 0 2.3397-1.8384 3.0082-7.3534 3.0082h-3.1753v6.0164h44.12v-6.0164c-9.3589-0.83561-12.701-2.8411-19.553-11.531l-23.731-32.422 7.5205-7.3534c9.8603-9.526 16.879-13.203 28.244-14.54v-6.0164h-43.953v6.0164h5.1808c5.3479 0 7.8548 1.0027 7.8548 3.1753 0 1.8384-1.1699 3.8438-3.8438 6.5178z"/>
  </g>
  <g transform="matrix(1.2906 0 0 .86985 -24.743 -5.4061)" stroke-width="3.71" aria-label="_">
   <path d="m152.29 170.23v9.0523h74.2v-9.0523z"/>
  </g>
  <g transform="matrix(1.2906 0 0 .86985 -24.743 21.408)" stroke-width="3.71" aria-label="_">
   <path d="m152.29 170.23v9.0523h74.2v-9.0523z"/>
  </g>
 </g>
 <rect x=".89073" y="1.1415" width="266.67" height="267.81" ry="0" fill="none" stroke="#000" stroke-miterlimit="3.5" stroke-width="5" style="paint-order:normal"/>
</svg>
