<?xml version="1.0" encoding="UTF-8" standalone="no"?>
<!-- Created with Inkscape (http://www.inkscape.org/) -->

<svg
   width="1000"
   height="1000"
   viewBox="0 0 264.58333 264.58334"
   version="1.1"
   id="svg5"
   xmlns="http://www.w3.org/2000/svg"
   xmlns:svg="http://www.w3.org/2000/svg">
  <defs
     id="defs2" />
  <g
     id="layer1">
    <g
       aria-label="G"
       id="text8774"
       style="font-size:234.119px;line-height:1.25;font-family:C059;-inkscape-font-specification:'C059, Normal';stroke:none;stroke-width:5.853"
       transform="matrix(0.91510067,0,0,0.91510067,9.4623664,51.461243)" />
    <g
       aria-label="k"
       id="text9570"
       style="font-size:167.123px;line-height:1.25;font-family:C059;-inkscape-font-specification:'C059, Normal';stroke:none;stroke-width:4.17809"
       transform="matrix(0.91510067,0,0,0.91510067,14.895016,49.971106)" />
    <g
       aria-label="_"
       transform="matrix(1.1810241,0,0,0.79599915,-13.180185,46.514134)"
       id="text12144"
       style="font-size:148.399px;line-height:1.25;font-family:C059;-inkscape-font-specification:'C059, Normal';stroke:none;stroke-width:3.70998" />
    <g
       aria-label="_"
       transform="matrix(1.1810241,0,0,0.79599915,-13.180185,71.051788)"
       id="g12299"
       style="font-size:148.399px;line-height:1.25;font-family:C059;-inkscape-font-specification:'C059, Normal';stroke:none;stroke-width:3.70998;fill:#ffffff">
      <path
         id="path18157"
         style="stroke:none;fill:#ffffff"
         d="m 152.28703,170.22921 v 9.05234 h 74.1995 v -9.05234 z m 0,-30.82623 v 9.05234 h 74.1995 v -9.05234 z m 23.95621,-69.711562 v -95.103762 l -23.95621,2.113417 v 8.261539 h 6.21567 c 4.92073,0.192128 5.56819,1.344901 5.56819,9.60644 v 97.985694 9.222174 c -0.12949,2.68982 -0.25898,3.84258 -0.77695,4.80323 -0.90645,1.72916 -3.36682,2.49768 -8.93502,2.6898 h -0.51797 v 6.91664 h 32.76173 v -6.91664 h -0.51797 c -8.67604,-0.38425 -9.84147,-1.3449 -9.84147,-8.26154 V 92.554746 81.603404 l 7.89907,-11.143471 15.40967,32.085517 c 0.64746,1.53702 0.90645,2.49767 0.90645,3.26619 0,2.6898 -1.42442,3.45831 -5.69769,3.45831 h -2.46037 v 6.91664 h 34.18615 v -6.91664 c -7.25161,-0.96064 -9.84147,-3.26619 -15.15068,-13.25689 l -18.38801,-37.272984 5.82719,-8.453668 c 7.64009,-10.951342 13.07879,-15.178176 21.88432,-16.715206 v -6.916638 h -34.05666 v 6.916638 h 4.01428 c 4.14378,0 6.08617,1.152772 6.08617,3.650447 0,2.113417 -0.90645,4.418963 -2.97834,7.493023 z m -46.0875,-90.837151 h -6.89335 l -7.07475,16.1489454 C 104.39639,-18.723391 96.414609,-23.298926 83.172119,-23.298926 c -14.330913,0 -25.57796,5.92128 -37.006409,19.6478839 C 28.206717,17.880887 19.862135,45.064946 19.862135,81.400074 c 0,27.453216 5.260715,50.330886 15.963549,67.825576 11.247046,18.84044 27.936211,29.87555 45.350992,29.87555 15.237933,0 25.940764,-6.99788 37.732024,-24.49257 l 6.71195,24.22342 h 7.61897 v -59.2128 c 0,-13.7266 0,-14.2649 1.08842,-16.68724 1.63263,-2.960646 4.8979,-3.768096 15.23793,-3.768096 h 2.72106 V 86.513908 H 94.600569 v 12.650006 h 3.446674 c 15.237937,0 16.507767,1.345746 16.507767,16.418096 0,11.57341 -1.26983,22.07023 -3.62808,28.52981 -4.5351,13.18831 -16.144957,22.33937 -27.936215,22.33937 -11.791257,0 -23.401112,-8.88191 -29.568847,-22.33937 -6.711946,-15.07236 -9.61441,-33.91279 -9.61441,-62.711746 0,-60.020249 13.423894,-92.048993 38.639045,-92.048993 20.680047,0 35.010967,22.070228 42.448527,65.134083 h 7.80037 z" />
    </g>
  </g>
</svg>
